<svg width="25" height="25" viewBox="0 0 25 25" fill="none" xmlns="http://www.w3.org/2000/svg">
<path d="M12.415 7.47757L11.5311 6.59366C10.7106 5.77319 9.59781 5.31226 8.4375 5.31226C7.27719 5.31226 6.16438 5.77319 5.34391 6.59366C4.52344 7.41413 4.0625 8.52694 4.0625 9.68726C4.0625 10.8476 4.52344 11.9604 5.34391 12.7808L9.74416 17.1811C9.7505 17.1875 9.75688 17.1939 9.76328 17.2003L11.973 19.41C12.095 19.5321 12.255 19.5931 12.415 19.5931" stroke="#222222" stroke-linecap="round" stroke-linejoin="round"/>
<path d="M12.415 7.47751L13.2988 6.59366C14.1193 5.77319 15.2321 5.31226 16.3924 5.31226C17.5527 5.31226 18.6655 5.77319 19.486 6.59366C20.3065 7.41413 20.7674 8.52694 20.7674 9.68726C20.7674 10.8476 20.3065 11.9604 19.486 12.7808L12.8569 19.41C12.7349 19.532 12.5749 19.593 12.415 19.593" stroke="#222222" stroke-linecap="round" stroke-linejoin="round"/>
</svg>
