<svg width="24" height="24" viewBox="0 0 24 24" fill="none" xmlns="http://www.w3.org/2000/svg">
<path d="M7.79995 14.6999H19.2L21.3 6.29993H5.69995" stroke="#222222" stroke-linecap="round" stroke-linejoin="round"/>
<path d="M8.68516 18.2409L5.09995 3.90002H2.69995" stroke="#222222" stroke-linecap="round" stroke-linejoin="round"/>
<path d="M7.92051 18.4497C8.40282 18.1712 8.99706 18.1712 9.47937 18.4497C9.96168 18.7281 10.2588 19.2428 10.2588 19.7997C10.2588 20.3566 9.96168 20.8712 9.47937 21.1497C8.99706 21.4281 8.40282 21.4281 7.92051 21.1497C7.4382 20.8712 7.14111 20.3566 7.14111 19.7997C7.14111 19.2428 7.4382 18.7281 7.92051 18.4497Z" stroke="#222222" stroke-linecap="round" stroke-linejoin="round"/>
<path d="M9.12573 18.3H18.1744" stroke="#222222" stroke-linecap="round" stroke-linejoin="round"/>
<path d="M17.8207 18.4497C18.303 18.1712 18.8972 18.1712 19.3795 18.4497C19.8618 18.7281 20.1589 19.2428 20.1589 19.7997C20.1589 20.3566 19.8618 20.8712 19.3795 21.1497C18.8972 21.4281 18.303 21.4281 17.8207 21.1497C17.3383 20.8712 17.0413 20.3566 17.0413 19.7997C17.0413 19.2428 17.3383 18.7281 17.8207 18.4497Z" stroke="#222222" stroke-linecap="round" stroke-linejoin="round"/>
</svg>
