<svg width="100" height="100" viewBox="0 0 100 100" fill="none" xmlns="http://www.w3.org/2000/svg">
<path d="M36 57.5C35.9 57.5 35.7 57.5 35.6 57.3C35.4 57.1 35.4 56.8 35.6 56.6L49.6 42.6C49.8 42.4 50.1 42.4 50.3 42.6C50.5 42.8 50.5 43.1 50.3 43.3L36.3 57.3C36.3 57.5 36.1 57.5 36 57.5Z" fill="white"/>
<path d="M64 57.5C63.9 57.5 63.7 57.5 63.6 57.3L49.6 43.3C49.4 43.1 49.4 42.8 49.6 42.6C49.8 42.4 50.1 42.4 50.3 42.6L64.3 56.6C64.5 56.8 64.5 57.1 64.3 57.3C64.3 57.5 64.1 57.5 64 57.5Z" fill="white"/>
</svg>
