<svg width="25" height="25" viewBox="0 0 25 25" fill="none" xmlns="http://www.w3.org/2000/svg">
<path d="M18.75 21.8751H6.25C5.55966 21.8751 5 21.3155 5 20.6251V20.2076C5 18.3911 6.12691 16.7653 7.82781 16.1278C10.8403 14.9987 14.1597 14.9987 17.1722 16.1278C18.8731 16.7653 20 18.3911 20 20.2076V20.6251C20 21.3155 19.4403 21.8751 18.75 21.8751Z" stroke="#222222" stroke-linecap="round" stroke-linejoin="round"/>
<path d="M10.5941 12.146C11.7903 12.7605 13.2094 12.7605 14.4057 12.146C15.519 11.5741 16.3166 10.5325 16.5785 9.30865L16.6484 8.98199C16.9162 7.73043 16.6301 6.42421 15.8638 5.39912L15.7515 5.24902C14.985 4.2238 13.7799 3.62012 12.4999 3.62012C11.2198 3.62012 10.0147 4.2238 9.24822 5.24902L9.136 5.39912C8.3696 6.42421 8.08356 7.73043 8.35135 8.98199L8.42125 9.30865C8.68313 10.5325 9.48078 11.5741 10.5941 12.146Z" stroke="#222222" stroke-linecap="round" stroke-linejoin="round"/>
</svg>
